<?xml version="1.0" encoding="UTF-8"?><svg xmlns="http://www.w3.org/2000/svg" viewBox="0 0 106.33 106.43"><defs><style>.d{fill:#f3f3f3;}.e{fill:#676767;}.f{fill:#f05a25;}</style></defs><g id="a"/><g id="b"><g id="c"><path class="d" d="M43.36,.19c0-.06,0-.13,0-.19h4.55c0,.07,0,.13,0,.2h-4.56Z"/><path class="e" d="M43.36,.19h4.56c9.27,.6,17.83,3.34,25.63,8.4,.9,.58,1.81,1.17,2.51,2.02-.03,.14-.06,.27-.09,.41-4.18-1.66-8.45-3.02-12.87-3.9-17.57-3.5-32.18,3.28-42.06,17.5-5.41,7.78-8.42,16.42-8.31,25.94,.16,13.67,6.54,23.9,17.86,31.22,2.35,1.52,4.86,2.74,7.51,3.67,.21,.08,.42,.19,.59,.36-1.29,.04-2.49-.36-3.72-.62-7.35-1.56-14.25-4.15-20.17-8.92-6.81-5.48-11.88-12.19-13.73-20.91C-3.39,34.25,6.37,15.81,23.56,5.98,29.69,2.47,36.29,.52,43.36,.19Z"/><path class="e" d="M75.97,11.02c.03-.14,.06-.27,.09-.41,.68,.78,1.56,.91,2.56,.96,14.31,.74,25.43,11.04,27.33,25.25,1.59,11.92-1.86,22.37-9.39,31.53-7.8,9.49-17.59,16.02-29.48,19.3-.41,.11-.9,.08-.96,.81-.32,3.38-2.2,5.74-5.06,7.4-.31,.18-.61,.38-.95,.51-1.05,.41-1.53,1.09-1.69,2.28-.29,2.18-1.99,3.27-3.82,4.09-.64,.29-1.07,.61-1.38,1.31-.62,1.41-2.01,1.88-3.39,2.19-1.3,.29-2.62,.29-3.85-.37-.61-.33-1.02-.75-.72-1.67,.89,1.1,2.04,.98,3.15,.88,1.09-.1,2.17-.33,3.28-1.22-1.75-.02-3.24,.2-4.71-.19-.74-.19-1.46-.43-2.11-.82-1.27-.75-1.53-1.59-.92-3.14,.46,1.24,1.4,1.69,2.56,1.83,2.86,.33,5.56-.2,8.08-1.57,.73-.4,1.37-.94,1.95-1.91-1.14,.26-2.04,.47-2.94,.66-3.9,.81-7.77,.84-11.55-.62-2.79-1.08-3.59-3.28-2.02-5.45,.06-.09,.18-.13,.35-.25,.2,1.74,1.4,2.45,2.85,2.84,3.25,.89,6.5,.54,9.73-.11,2.58-.53,5.11-1.28,7.36-2.73,1.46-.94,2.74-2.04,3.5-3.93-4.19,.55-8.25,1.01-12.31,.16,2.23-.37,4.49-.5,6.69-1.04,1.43-.35,2.87-.69,4.29-1.08,.28-.08,.73-.02,.79-.4,.06-.41-.36-.58-.63-.8-.21-.17-.45-.31-.95-.65,1.15,.07,1.94,.33,2.67,.72,.47,.25,.87,.24,1.35,.03,15.23-6.41,25.58-17.17,28.99-33.64,2.03-9.83,.18-19.15-6.15-27.16-4.33-5.48-10.22-8.39-17.14-9.29-4.29-.56-8.42-.04-12.45,1.48-.04-.05-.07-.09-.11-.14,4.9-3.38,10.36-5,16.29-5.17,.32,0,.68,.08,.95-.04,.46-.21-.13-.27-.12-.44Z"/><path class="f" d="M47.61,68.21c.53-.79,.96-1.55,1.49-2.23,4.06-5.14,9.37-7.8,15.93-7.91,1.17-.02,2.31,.2,3.41,.56,4.22,1.38,6.01,5.16,4.76,9.96-.7,2.69-2.38,4.66-4.51,6.3-3.3,2.55-7.13,4.04-10.98,5.49-3.33,1.25-6.6,2.63-9.48,4.76-.6,.44-1.15,.95-1.73,1.43-.47-.58-.92-1.18-1.42-1.74-1.63-1.85-3.61-3.25-5.75-4.46-1.35-.77-2.7-1.55-3.81-2.68-1.15-1.17-1.74-2.58-1.72-4.21,.04-3.26,1.15-6.03,3.92-7.94,3.29-2.27,7.23-1.47,9.4,1.86,.15,.23,.29,.46,.49,.79Z"/><path class="e" d="M58.96,16.81c-.15,.24-.5,.3-.55,.14-.09-.25,.31-.14,.44-.28,.03,.05,.07,.09,.11,.14Z"/><polygon class="e" points="61.31 84.56 61.39 84.57 61.38 84.59 61.31 84.56"/></g></g></svg>